<svg width="27" height="25" viewBox="0 0 27 25" fill="none" xmlns="http://www.w3.org/2000/svg">
<path d="M12 12.5C12 11.1193 13.1193 10 14.5 10H23.5C24.8807 10 26 11.1193 26 12.5V21.5C26 22.8807 24.8807 24 23.5 24H14.5C13.1193 24 12 22.8807 12 21.5V12.5Z" fill="white"/>
<path fill-rule="evenodd" clip-rule="evenodd" d="M23.5 11H14.5C13.6716 11 13 11.6716 13 12.5V21.5C13 22.3284 13.6716 23 14.5 23H23.5C24.3284 23 25 22.3284 25 21.5V12.5C25 11.6716 24.3284 11 23.5 11ZM14.5 10C13.1193 10 12 11.1193 12 12.5V21.5C12 22.8807 13.1193 24 14.5 24H23.5C24.8807 24 26 22.8807 26 21.5V12.5C26 11.1193 24.8807 10 23.5 10H14.5Z" fill="#000000"/>
<path fill-rule="evenodd" clip-rule="evenodd" d="M15.5 11H14.5C13.6716 11 13 11.6716 13 12.5V21.5C13 22.3284 13.6716 23 14.5 23H15.5V11ZM16 10H14.5C13.1193 10 12 11.1193 12 12.5V21.5C12 22.8807 13.1193 24 14.5 24L16 24L23.5 24C24.8807 24 26 22.8807 26 21.5V12.5C26 11.1193 24.8807 10 23.5 10H16ZM16.5 11V14H24.5H25V12.5C25 11.6716 24.3284 11 23.5 11H16.5ZM16.5 15V18.5H24.5H25V15H24.5H16.5ZM16.5 19.5V23H23.5C24.3284 23 25 22.3284 25 21.5V19.5H24.5H16.5Z" fill="#000000"/>
<path fill-rule="evenodd" clip-rule="evenodd" d="M8.5 3.1875C8.5 2.91136 8.27614 2.6875 8 2.6875C7.72386 2.6875 7.5 2.91136 7.5 3.1875V7.5H3.1875C2.91136 7.5 2.6875 7.72386 2.6875 8C2.6875 8.27614 2.91136 8.5 3.1875 8.5H7.5V12.8125C7.5 13.0886 7.72386 13.3125 8 13.3125C8.27614 13.3125 8.5 13.0886 8.5 12.8125V8.5H12.8125C13.0886 8.5 13.3125 8.27614 13.3125 8C13.3125 7.72386 13.0886 7.5 12.8125 7.5H8.5V3.1875Z" fill="#000000"/>
</svg>
