<svg width="27" height="24" viewBox="0 0 27 24" fill="none" xmlns="http://www.w3.org/2000/svg">
<path fill-rule="evenodd" clip-rule="evenodd" d="M8.5 3.1875C8.5 2.91136 8.27614 2.6875 8 2.6875C7.72386 2.6875 7.5 2.91136 7.5 3.1875V7.5H3.1875C2.91136 7.5 2.6875 7.72386 2.6875 8C2.6875 8.27614 2.91136 8.5 3.1875 8.5H7.5V12.8125C7.5 13.0886 7.72386 13.3125 8 13.3125C8.27614 13.3125 8.5 13.0886 8.5 12.8125V8.5H12.8125C13.0886 8.5 13.3125 8.27614 13.3125 8C13.3125 7.72386 13.0886 7.5 12.8125 7.5H8.5V3.1875Z" fill="#000000"/>
<path d="M23.5 9.5H14.5C13.1193 9.5 12 10.6193 12 12V20C12 21.3807 13.1193 22.5 14.5 22.5H23.5C24.8807 22.5 26 21.3807 26 20V12C26 10.6193 24.8807 9.5 23.5 9.5Z" fill="white"/>
<path fill-rule="evenodd" clip-rule="evenodd" d="M23.5 10.5H14.5C13.6716 10.5 13 11.1716 13 12V20C13 20.6907 13.4669 21.2724 14.1023 21.4467C14.1182 21.426 14.1358 21.4062 14.1554 21.3877L20.5839 15.2751C20.8822 14.9914 21.3349 14.9463 21.6833 15.1655L25 17.2521V12C25 11.1716 24.3284 10.5 23.5 10.5ZM23.5 21.5H15.4884L21.2166 16.0533L24.9837 18.4232C24.9891 18.4266 24.9945 18.4299 25 18.4331V20C25 20.8284 24.3284 21.5 23.5 21.5ZM14.5 9.5H23.5C24.8807 9.5 26 10.6193 26 12V20C26 21.3807 24.8807 22.5 23.5 22.5H14.5C13.1193 22.5 12 21.3807 12 20V12C12 10.6193 13.1193 9.5 14.5 9.5ZM17 13.75C17 14.1642 16.6642 14.5 16.25 14.5C15.8358 14.5 15.5 14.1642 15.5 13.75C15.5 13.3358 15.8358 13 16.25 13C16.6642 13 17 13.3358 17 13.75ZM16.25 15.5C17.2165 15.5 18 14.7165 18 13.75C18 12.7835 17.2165 12 16.25 12C15.2835 12 14.5 12.7835 14.5 13.75C14.5 14.7165 15.2835 15.5 16.25 15.5Z" fill="#000000"/>
</svg>
