<svg width="30" height="22" viewBox="0 0 30 22" fill="none" xmlns="http://www.w3.org/2000/svg">
<path fill-rule="evenodd" clip-rule="evenodd" d="M8.5 3.1875C8.5 2.91136 8.27614 2.6875 8 2.6875C7.72386 2.6875 7.5 2.91136 7.5 3.1875V7.5H3.1875C2.91136 7.5 2.6875 7.72386 2.6875 8C2.6875 8.27614 2.91136 8.5 3.1875 8.5H7.5V12.8125C7.5 13.0886 7.72386 13.3125 8 13.3125C8.27614 13.3125 8.5 13.0886 8.5 12.8125V8.5H12.8125C13.0886 8.5 13.3125 8.27614 13.3125 8C13.3125 7.72386 13.0886 7.5 12.8125 7.5H8.5V3.1875Z" fill="#171717"/>
<rect x="11" y="10" width="19" height="12" fill="white"/>
<path fill-rule="evenodd" clip-rule="evenodd" d="M12 10.5C12.2761 10.5 12.5 10.7239 12.5 11V20.625C12.5 20.9011 12.2761 21.125 12 21.125C11.7239 21.125 11.5 20.9011 11.5 20.625V11C11.5 10.7239 11.7239 10.5 12 10.5Z" fill="#333333"/>
<path fill-rule="evenodd" clip-rule="evenodd" d="M14 10.5C14.2761 10.5 14.5 10.7239 14.5 11V20.625C14.5 20.9011 14.2761 21.125 14 21.125C13.7239 21.125 13.5 20.9011 13.5 20.625V11C13.5 10.7239 13.7239 10.5 14 10.5Z" fill="#333333"/>
<path fill-rule="evenodd" clip-rule="evenodd" d="M17 10.5C17.2761 10.5 17.5 10.7239 17.5 11V20.625C17.5 20.9011 17.2761 21.125 17 21.125C16.7239 21.125 16.5 20.9011 16.5 20.625V11C16.5 10.7239 16.7239 10.5 17 10.5Z" fill="#333333"/>
<path fill-rule="evenodd" clip-rule="evenodd" d="M19 10.5C19.2761 10.5 19.5 10.7239 19.5 11V20.625C19.5 20.9011 19.2761 21.125 19 21.125C18.7239 21.125 18.5 20.9011 18.5 20.625V11C18.5 10.7239 18.7239 10.5 19 10.5Z" fill="#333333"/>
<path fill-rule="evenodd" clip-rule="evenodd" d="M21 10.5C21.2761 10.5 21.5 10.7239 21.5 11V20.625C21.5 20.9011 21.2761 21.125 21 21.125C20.7239 21.125 20.5 20.9011 20.5 20.625V11C20.5 10.7239 20.7239 10.5 21 10.5Z" fill="#333333"/>
<path fill-rule="evenodd" clip-rule="evenodd" d="M24 10.5C24.2761 10.5 24.5 10.7239 24.5 11V20.625C24.5 20.9011 24.2761 21.125 24 21.125C23.7239 21.125 23.5 20.9011 23.5 20.625V11C23.5 10.7239 23.7239 10.5 24 10.5Z" fill="#333333"/>
<path fill-rule="evenodd" clip-rule="evenodd" d="M26 10.5C26.2761 10.5 26.5 10.7239 26.5 11V20.625C26.5 20.9011 26.2761 21.125 26 21.125C25.7239 21.125 25.5 20.9011 25.5 20.625V11C25.5 10.7239 25.7239 10.5 26 10.5Z" fill="#333333"/>
<path fill-rule="evenodd" clip-rule="evenodd" d="M29 10.5C29.2761 10.5 29.5 10.7239 29.5 11V20.625C29.5 20.9011 29.2761 21.125 29 21.125C28.7239 21.125 28.5 20.9011 28.5 20.625V11C28.5 10.7239 28.7239 10.5 29 10.5Z" fill="#333333"/>
</svg>
