<svg width="6" height="14" viewBox="0 0 6 14" fill="none" xmlns="http://www.w3.org/2000/svg">
<path fill-rule="evenodd" clip-rule="evenodd" d="M0.60058 0.5C0.324441 0.5 0.100586 0.723858 0.100586 1C0.100586 1.27614 0.324441 1.5 0.60058 1.5C1.10449 1.5 1.58775 1.70018 1.94407 2.0565C2.29538 2.40781 2.4949 2.88253 2.50044 3.37877C2.50039 3.38585 2.50036 3.39292 2.50036 3.4V10.6C2.50036 10.6071 2.50039 10.6142 2.50044 10.6212C2.4949 11.1175 2.29538 11.5922 1.94407 11.9435C1.58775 12.2998 1.10449 12.5 0.60058 12.5C0.324441 12.5 0.100586 12.7239 0.100586 13C0.100586 13.2761 0.324441 13.5 0.60058 13.5C1.3697 13.5 2.10732 13.1945 2.65117 12.6506C2.78162 12.5202 2.89836 12.3786 3.00046 12.228C3.10256 12.3786 3.21929 12.5202 3.34974 12.6506C3.89359 13.1945 4.63121 13.5 5.40033 13.5C5.67647 13.5 5.90033 13.2761 5.90033 13C5.90033 12.7239 5.67647 12.5 5.40033 12.5C4.89643 12.5 4.41316 12.2998 4.05684 11.9435C3.70553 11.5922 3.50601 11.1175 3.50047 10.6212C3.50052 10.6142 3.50055 10.6071 3.50055 10.6V3.4C3.50055 3.39292 3.50052 3.38585 3.50047 3.37877C3.50601 2.88253 3.70553 2.40781 4.05684 2.0565C4.41316 1.70018 4.89643 1.5 5.40033 1.5C5.67647 1.5 5.90033 1.27614 5.90033 1C5.90033 0.723858 5.67647 0.5 5.40033 0.5C4.63121 0.5 3.89359 0.805535 3.34974 1.34939C3.21929 1.47984 3.10256 1.62144 3.00046 1.77195C2.89836 1.62144 2.78162 1.47984 2.65117 1.34939C2.10732 0.805535 1.3697 0.5 0.60058 0.5Z" fill="#000000"/>
</svg>
