<svg width="26" height="24" viewBox="0 0 26 24" fill="none" xmlns="http://www.w3.org/2000/svg">
<path fill-rule="evenodd" clip-rule="evenodd" d="M8.5 3.1875C8.5 2.91136 8.27614 2.6875 8 2.6875C7.72386 2.6875 7.5 2.91136 7.5 3.1875V7.5H3.1875C2.91136 7.5 2.6875 7.72386 2.6875 8C2.6875 8.27614 2.91136 8.5 3.1875 8.5H7.5V12.8125C7.5 13.0886 7.72386 13.3125 8 13.3125C8.27614 13.3125 8.5 13.0886 8.5 12.8125V8.5H12.8125C13.0886 8.5 13.3125 8.27614 13.3125 8C13.3125 7.72386 13.0886 7.5 12.8125 7.5H8.5V3.1875Z" fill="#000000"/>
<path fill-rule="evenodd" clip-rule="evenodd" d="M23.5 11H14.5C13.6716 11 13 11.6716 13 12.5V21.5C13 22.3284 13.6716 23 14.5 23H23.5C24.3284 23 25 22.3284 25 21.5V12.5C25 11.6716 24.3284 11 23.5 11ZM14.5 10C13.1193 10 12 11.1193 12 12.5V21.5C12 22.8807 13.1193 24 14.5 24H23.5C24.8807 24 26 22.8807 26 21.5V12.5C26 11.1193 24.8807 10 23.5 10H14.5Z" fill="#000000"/>
</svg>
