<svg width="16" height="16" viewBox="0 0 16 16" fill="none" xmlns="http://www.w3.org/2000/svg">
<path d="M15 5.82759L10.6726 7.82428L8.72414 8.72414L5.82759 15L1 1L15 5.82759Z" fill="white"/>
<path fill-rule="evenodd" clip-rule="evenodd" d="M0.646443 0.64646C0.511213 0.78169 0.464966 0.982212 0.52731 1.16301L5.3549 15.163C5.42144 15.356 5.59863 15.4891 5.80251 15.4994C6.00639 15.5096 6.19602 15.3949 6.28156 15.2095L9.10095 9.10087L10.882 8.27829L10.8822 8.27822L15.2095 6.2816C15.3948 6.19607 15.5096 6.00644 15.4994 5.80255C15.4891 5.59866 15.356 5.42146 15.163 5.35491L1.16299 0.527327C0.982195 0.464984 0.781673 0.51123 0.646443 0.64646ZM8.12405 8.83118L5.89481 13.6612L1.80725 1.80727L13.661 5.89476L10.4631 7.37029L10.4629 7.37036L8.83109 8.124L6.66389 5.9568C6.46863 5.76154 6.15205 5.76154 5.95679 5.9568C5.76153 6.15207 5.76153 6.46865 5.95679 6.66391L8.12405 8.83118Z" fill="#000000"/>
</svg>
