<svg width="117" height="117" viewBox="0 0 117 117" fill="none" xmlns="http://www.w3.org/2000/svg">
<mask id="mask0_1458_2" style="mask-type:luminance" maskUnits="userSpaceOnUse" x="0" y="0" width="117" height="117">
<path d="M117 0H0V117H117V0Z" fill="white"/>
</mask>
<g mask="url(#mask0_1458_2)">
<path d="M94 0H23C10.2975 0 0 10.2975 0 23V94C0 106.703 10.2975 117 23 117H94C106.703 117 117 106.703 117 94V23C117 10.2975 106.703 0 94 0Z" fill="#7B4B57"/>
<path d="M81 31H36.43V21H71L81 31Z" fill="#FDFAED"/>
<path d="M81 41V31H71V41H81Z" fill="#FDFAED"/>
<path d="M88 76H98V51H88V76Z" fill="#FDFAED"/>
<path d="M20 76H30V51H20V76Z" fill="#FDFAED"/>
<path d="M47 74H36V98H47V74Z" fill="#FDFAED"/>
<path d="M81 74H71V98H81V74Z" fill="#FDFAED"/>
<path d="M71.01 98V88H46.44V98H71.01Z" fill="#FDFAED"/>
<path d="M98 51H20C20 48.3478 20.9668 45.8043 22.6877 43.9289C24.4087 42.0536 26.7427 41 29.1765 41H88.8235C90.0286 41 91.2219 41.2587 92.3352 41.7612C93.4486 42.2638 94.4602 43.0003 95.3123 43.9289C96.1644 44.8575 96.8403 45.9599 97.3017 47.1732C97.7623 48.3864 98 49.6868 98 51Z" fill="#FDFAED"/>
<path d="M36 76V86H27.3226C25.335 85.8347 23.4714 84.7086 22.111 82.8508C20.7507 80.9931 19.9958 78.5433 20 76H36Z" fill="#FDFAED"/>
<path d="M98 76V76.53C97.8938 78.9823 97.0237 81.3029 95.5565 83.0493C94.0892 84.7958 92.1271 85.846 90.044 86H81V76H98Z" fill="#FDFAED"/>
</g>
</svg>
