<svg width="117" height="117" viewBox="0 0 117 117" fill="none" xmlns="http://www.w3.org/2000/svg">
<g clip-path="url(#clip0_104_19)">
<path d="M94 0H23C10.2975 0 0 10.2975 0 23V94C0 106.703 10.2975 117 23 117H94C106.703 117 117 106.703 117 94V23C117 10.2975 106.703 0 94 0Z" fill="url(#paint0_linear_104_19)"/>
<path d="M81 26H36.43V16H71L81 26Z" fill="#78673B"/>
<path d="M81 36V26H71V36H81Z" fill="#78673B"/>
<path d="M91 75.99H101V45.99H91V75.99Z" fill="#78673B"/>
<path d="M16 75.99H26L26 45.99H16L16 75.99Z" fill="#78673B"/>
<path d="M47 66H36V101H47V66Z" fill="#78673B"/>
<path d="M81 66H71V101H81V66Z" fill="#78673B"/>
<path d="M71.01 101V91H46.44V101H71.01Z" fill="#78673B"/>
<path d="M101 46H16C16 43.3478 17.0536 40.8043 18.9289 38.9289C20.8043 37.0536 23.3478 36 26 36H91C92.3132 36 93.6136 36.2587 94.8268 36.7612C96.0401 37.2638 97.1425 38.0003 98.0711 38.9289C98.9997 39.8575 99.7362 40.9599 100.239 42.1732C100.741 43.3864 101 44.6868 101 46Z" fill="#78673B"/>
<path d="M36.43 76V86H25.35C22.8121 85.8347 20.4325 84.7086 18.6955 82.8508C16.9585 80.9931 15.9946 78.5433 16 76H36.43Z" fill="#78673B"/>
<path d="M101 76V76.53C100.875 78.9823 99.8514 81.3029 98.1253 83.0493C96.3991 84.7958 94.0907 85.846 91.64 86H81V76H101Z" fill="#78673B"/>
<path d="M34 56V51H29V56H34Z" fill="#78673B"/>
<path d="M36 66L36 71L81 71L81 66L36 66Z" fill="#78673B"/>
</g>
<defs>
<linearGradient id="paint0_linear_104_19" x1="58.5" y1="117" x2="58.5" y2="0" gradientUnits="userSpaceOnUse">
<stop stop-color="#F9F3E5"/>
<stop offset="1" stop-color="#F9F3E5"/>
</linearGradient>
<clipPath id="clip0_104_19">
<rect width="117" height="117" fill="white"/>
</clipPath>
</defs>
</svg>
